<?xml version="1.0" encoding="UTF-8" standalone="no"?>
<svg
   xmlns:dc="http://purl.org/dc/elements/1.1/"
   xmlns:cc="http://creativecommons.org/ns#"
   xmlns:rdf="http://www.w3.org/1999/02/22-rdf-syntax-ns#"
   xmlns:svg="http://www.w3.org/2000/svg"
   xmlns="http://www.w3.org/2000/svg"
   xmlns:sodipodi="http://sodipodi.sourceforge.net/DTD/sodipodi-0.dtd"
   xmlns:inkscape="http://www.inkscape.org/namespaces/inkscape"
   width="24"
   height="24"
   viewBox="0 0 24 24"
   version="1.1"
   id="svg8"
   sodipodi:docname="power0.svg"
   inkscape:version="0.92.4 (5da689c313, 2019-01-14)">
  <metadata
     id="metadata11">
    <rdf:RDF>
      <cc:Work
         rdf:about="">
        <dc:format>image/svg+xml</dc:format>
        <dc:type
           rdf:resource="http://purl.org/dc/dcmitype/StillImage" />
      </cc:Work>
    </rdf:RDF>
  </metadata>
  <defs
     id="defs9" />
  <sodipodi:namedview
     pagecolor="#ffffff"
     bordercolor="#666666"
     borderopacity="1"
     objecttolerance="10"
     gridtolerance="10"
     guidetolerance="10"
     inkscape:pageopacity="0"
     inkscape:pageshadow="2"
     inkscape:window-width="2560"
     inkscape:window-height="1386"
     id="namedview7"
     showgrid="false"
     inkscape:zoom="39.333333"
     inkscape:cx="4.5381353"
     inkscape:cy="11.949153"
     inkscape:window-x="0"
     inkscape:window-y="-8"
     inkscape:window-maximized="1"
     inkscape:current-layer="svg8" />
  <path
     style="color:#000000;font-style:normal;font-variant:normal;font-weight:normal;font-stretch:normal;font-size:medium;line-height:normal;font-family:sans-serif;font-variant-ligatures:normal;font-variant-position:normal;font-variant-caps:normal;font-variant-numeric:normal;font-variant-alternates:normal;font-feature-settings:normal;text-indent:0;text-align:start;text-decoration:none;text-decoration-line:none;text-decoration-style:solid;text-decoration-color:#000000;letter-spacing:normal;word-spacing:normal;text-transform:none;writing-mode:lr-tb;direction:ltr;text-orientation:mixed;dominant-baseline:auto;baseline-shift:baseline;text-anchor:start;white-space:normal;shape-padding:0;clip-rule:nonzero;display:inline;overflow:visible;visibility:visible;opacity:1;isolation:auto;mix-blend-mode:normal;color-interpolation:sRGB;color-interpolation-filters:linearRGB;solid-color:#000000;solid-opacity:1;vector-effect:none;fill:#000000;fill-opacity:1;fill-rule:nonzero;stroke:none;stroke-width:3;stroke-linecap:round;stroke-linejoin:miter;stroke-miterlimit:4;stroke-dasharray:none;stroke-dashoffset:0;stroke-opacity:1;color-rendering:auto;image-rendering:auto;shape-rendering:auto;text-rendering:auto;enable-background:accumulate"
     d="m 11.976562,1 a 1.50015,1.50015 0 0 0 -0.582031,0.1269531 1.50015,1.50015 0 0 0 -0.132812,0.068359 1.50015,1.50015 0 0 0 -0.126953,0.080078 1.50015,1.50015 0 0 0 -0.324219,0.3105469 1.50015,1.50015 0 0 0 -0.292969,0.6816406 1.50015,1.50015 0 0 0 -0.01563,0.1484375 1.50015,1.50015 0 0 0 -0.002,0.1054688 v 7.9570316 a 1.50015,1.50015 0 0 0 0.06055,0.445312 1.50015,1.50015 0 0 0 0.113281,0.277344 1.50015,1.50015 0 0 0 0.07617,0.128906 1.50015,1.50015 0 0 0 0.189453,0.230469 1.50015,1.50015 0 0 0 0.232422,0.189453 1.50015,1.50015 0 0 0 0.265625,0.140625 1.50015,1.50015 0 0 0 0.140625,0.04883 1.50015,1.50015 0 0 0 0.294922,0.05469 1.50015,1.50015 0 0 0 0.298828,-0.0039 1.50015,1.50015 0 0 0 0.292969,-0.06445 1.50015,1.50015 0 0 0 0.273437,-0.121093 1.50015,1.50015 0 0 0 0.126953,-0.08008 1.50015,1.50015 0 0 0 0.226563,-0.195312 1.50015,1.50015 0 0 0 0.09766,-0.115235 1.50015,1.50015 0 0 0 0.08399,-0.123046 1.50015,1.50015 0 0 0 0.132812,-0.269532 1.50015,1.50015 0 0 0 0.04492,-0.142578 1.50015,1.50015 0 0 0 0.03125,-0.146484 A 1.50015,1.50015 0 0 0 13.5,10.478516 V 2.5214844 A 1.50015,1.50015 0 0 0 13.439453,2.0761719 1.50015,1.50015 0 0 0 13.390625,1.9355469 1.50015,1.50015 0 0 0 13.326172,1.7988281 1.50015,1.50015 0 0 0 13.25,1.6699219 1.50015,1.50015 0 0 0 12.699219,1.1738281 1.50015,1.50015 0 0 0 12.5625,1.109375 1.50015,1.50015 0 0 0 12.275391,1.0253906 1.50015,1.50015 0 0 0 11.976562,1 Z"
     id="path2"
     inkscape:connector-curvature="0" />
  <path
     style="color:#000000;font-style:normal;font-variant:normal;font-weight:normal;font-stretch:normal;font-size:medium;line-height:normal;font-family:sans-serif;font-variant-ligatures:normal;font-variant-position:normal;font-variant-caps:normal;font-variant-numeric:normal;font-variant-alternates:normal;font-feature-settings:normal;text-indent:0;text-align:start;text-decoration:none;text-decoration-line:none;text-decoration-style:solid;text-decoration-color:#000000;letter-spacing:normal;word-spacing:normal;text-transform:none;writing-mode:lr-tb;direction:ltr;text-orientation:mixed;dominant-baseline:auto;baseline-shift:baseline;text-anchor:start;white-space:normal;shape-padding:0;clip-rule:nonzero;display:inline;overflow:visible;visibility:visible;opacity:1;isolation:auto;mix-blend-mode:normal;color-interpolation:sRGB;color-interpolation-filters:linearRGB;solid-color:#000000;solid-opacity:1;vector-effect:none;fill:#000000;fill-opacity:1;fill-rule:nonzero;stroke:none;stroke-width:3;stroke-linecap:round;stroke-linejoin:miter;stroke-miterlimit:4;stroke-dasharray:none;stroke-dashoffset:0;stroke-opacity:1;color-rendering:auto;image-rendering:auto;shape-rendering:auto;text-rendering:auto;enable-background:accumulate"
     d="M 6.8398438,3.7890625 A 1.50015,1.50015 0 0 0 5.9082031,4.1113281 C 3.4460714,5.9982794 1.9999979,8.9243471 2,12.023438 2.000002,17.517847 6.4971493,22 12,22 c 5.502851,0 9.999998,-4.482153 10,-9.976562 3e-6,-2.96929 -1.327042,-5.7855514 -3.617188,-7.679688 A 1.50015,1.50015 0 1 0 16.470703,6.6542969 C 18.074766,7.9809877 19.000002,9.9473991 19,12.023438 18.999999,15.892058 15.885987,19 12,19 8.1140125,19 5.0000014,15.892058 5,12.023438 4.9999985,9.8563299 6.0074582,7.8141811 7.7324219,6.4921875 A 1.50015,1.50015 0 0 0 6.8398438,3.7890625 Z"
     id="path4"
     inkscape:connector-curvature="0" />
</svg>
