<?xml version="1.0" encoding="UTF-8" standalone="no"?>
<svg
   xmlns:dc="http://purl.org/dc/elements/1.1/"
   xmlns:cc="http://creativecommons.org/ns#"
   xmlns:rdf="http://www.w3.org/1999/02/22-rdf-syntax-ns#"
   xmlns:svg="http://www.w3.org/2000/svg"
   xmlns="http://www.w3.org/2000/svg"
   xmlns:sodipodi="http://sodipodi.sourceforge.net/DTD/sodipodi-0.dtd"
   xmlns:inkscape="http://www.inkscape.org/namespaces/inkscape"
   id="svg8"
   version="1.1"
   viewBox="0 0 24 24"
   height="24"
   width="24"
   sodipodi:docname="power1.svg"
   inkscape:version="0.92.4 (5da689c313, 2019-01-14)">
  <metadata
     id="metadata10">
    <rdf:RDF>
      <cc:Work
         rdf:about="">
        <dc:format>image/svg+xml</dc:format>
        <dc:type
           rdf:resource="http://purl.org/dc/dcmitype/StillImage" />
      </cc:Work>
    </rdf:RDF>
  </metadata>
  <sodipodi:namedview
     pagecolor="#ffffff"
     bordercolor="#666666"
     borderopacity="1"
     objecttolerance="10"
     gridtolerance="10"
     guidetolerance="10"
     inkscape:pageopacity="0"
     inkscape:pageshadow="2"
     inkscape:window-width="2560"
     inkscape:window-height="1386"
     id="namedview8"
     showgrid="false"
     inkscape:zoom="27.812867"
     inkscape:cx="12"
     inkscape:cy="12"
     inkscape:window-x="0"
     inkscape:window-y="-8"
     inkscape:window-maximized="1"
     inkscape:current-layer="svg8" />
  <defs
     id="defs2" />
  <path
     style="color:#000000;font-style:normal;font-variant:normal;font-weight:normal;font-stretch:normal;font-size:medium;line-height:normal;font-family:sans-serif;font-variant-ligatures:normal;font-variant-position:normal;font-variant-caps:normal;font-variant-numeric:normal;font-variant-alternates:normal;font-feature-settings:normal;text-indent:0;text-align:start;text-decoration:none;text-decoration-line:none;text-decoration-style:solid;text-decoration-color:#000000;letter-spacing:normal;word-spacing:normal;text-transform:none;writing-mode:lr-tb;direction:ltr;text-orientation:mixed;dominant-baseline:auto;baseline-shift:baseline;text-anchor:start;white-space:normal;shape-padding:0;clip-rule:nonzero;display:inline;overflow:visible;visibility:visible;opacity:1;isolation:auto;mix-blend-mode:normal;color-interpolation:sRGB;color-interpolation-filters:linearRGB;solid-color:#000000;solid-opacity:1;vector-effect:none;fill:#000000;fill-opacity:1;fill-rule:nonzero;stroke:none;stroke-width:3;stroke-linecap:butt;stroke-linejoin:miter;stroke-miterlimit:4;stroke-dasharray:none;stroke-dashoffset:0;stroke-opacity:1;color-rendering:auto;image-rendering:auto;shape-rendering:auto;text-rendering:auto;enable-background:accumulate"
     d="M 12,2 C 6.4949195,2 2,6.4949195 2,12 2,17.505081 6.4949195,22 12,22 17.505081,22 22,17.505081 22,12 22,6.4949195 17.505081,2 12,2 Z m 0,3 c 3.88376,0 7,3.1162398 7,7 0,3.88376 -3.11624,7 -7,7 C 8.1162398,19 5,15.88376 5,12 5,8.1162398 8.1162398,5 12,5 Z"
     id="circle3"
     inkscape:connector-curvature="0" />
  <path
     style="color:#000000;font-style:normal;font-variant:normal;font-weight:normal;font-stretch:normal;font-size:medium;line-height:normal;font-family:sans-serif;font-variant-ligatures:normal;font-variant-position:normal;font-variant-caps:normal;font-variant-numeric:normal;font-variant-alternates:normal;font-feature-settings:normal;text-indent:0;text-align:start;text-decoration:none;text-decoration-line:none;text-decoration-style:solid;text-decoration-color:#000000;letter-spacing:normal;word-spacing:normal;text-transform:none;writing-mode:lr-tb;direction:ltr;text-orientation:mixed;dominant-baseline:auto;baseline-shift:baseline;text-anchor:start;white-space:normal;shape-padding:0;clip-rule:nonzero;display:inline;overflow:visible;visibility:visible;opacity:1;isolation:auto;mix-blend-mode:normal;color-interpolation:sRGB;color-interpolation-filters:linearRGB;solid-color:#000000;solid-opacity:1;vector-effect:none;fill:#000000;fill-opacity:1;fill-rule:nonzero;stroke:none;stroke-width:3;stroke-linecap:round;stroke-linejoin:miter;stroke-miterlimit:4;stroke-dasharray:none;stroke-dashoffset:0;stroke-opacity:1;color-rendering:auto;image-rendering:auto;shape-rendering:auto;text-rendering:auto;enable-background:accumulate"
     d="M 11.976562,6.8984375 A 1.50015,1.50015 0 0 0 11.394531,7.0253906 1.50015,1.50015 0 0 0 11.261719,7.09375 1.50015,1.50015 0 0 0 11.134766,7.1738281 1.50015,1.50015 0 0 0 10.810547,7.484375 1.50015,1.50015 0 0 0 10.517578,8.1660156 1.50015,1.50015 0 0 0 10.501953,8.3144531 1.50015,1.50015 0 0 0 10.5,8.4199219 v 7.4570311 a 1.50015,1.50015 0 0 0 0.06055,0.445313 1.50015,1.50015 0 0 0 0.113281,0.277343 1.50015,1.50015 0 0 0 0.07617,0.128907 1.50015,1.50015 0 0 0 0.189453,0.232422 1.50015,1.50015 0 0 0 0.232422,0.189453 1.50015,1.50015 0 0 0 0.265625,0.138671 1.50015,1.50015 0 0 0 0.140625,0.04883 1.50015,1.50015 0 0 0 0.294922,0.05664 1.50015,1.50015 0 0 0 0.298828,-0.0059 1.50015,1.50015 0 0 0 0.292969,-0.0625 1.50015,1.50015 0 0 0 0.273437,-0.121094 1.50015,1.50015 0 0 0 0.126953,-0.08008 1.50015,1.50015 0 0 0 0.226563,-0.197266 1.50015,1.50015 0 0 0 0.09766,-0.113281 1.50015,1.50015 0 0 0 0.08399,-0.125 1.50015,1.50015 0 0 0 0.132812,-0.267578 1.50015,1.50015 0 0 0 0.04492,-0.142578 1.50015,1.50015 0 0 0 0.03125,-0.148438 A 1.50015,1.50015 0 0 0 13.5,15.876953 V 8.4199219 A 1.50015,1.50015 0 0 0 13.439453,7.9765625 1.50015,1.50015 0 0 0 13.390625,7.8339844 1.50015,1.50015 0 0 0 13.326172,7.6992188 1.50015,1.50015 0 0 0 13.25,7.5683594 1.50015,1.50015 0 0 0 12.699219,7.0722656 1.50015,1.50015 0 0 0 12.5625,7.0078125 1.50015,1.50015 0 0 0 12.275391,6.9238281 1.50015,1.50015 0 0 0 11.976562,6.8984375 Z"
     id="path5"
     inkscape:connector-curvature="0" />
</svg>
